<svg xmlns="http://www.w3.org/2000/svg" width="640" height="170" viewBox="0 0 640 170"><rect width="640" height="170" fill="#fff"/><text x="8" y="13" font-family="ui-monospace, SFMono-Regular, Menlo, monospace" font-size="11" fill="#18181b" font-weight="500">default</text><text x="312" y="13" font-family="ui-monospace, SFMono-Regular, Menlo, monospace" font-size="11" fill="#a1a1aa" text-anchor="end">33 stops · 431 bytes</text><line x1="8" x2="312" y1="136.21052631578948" y2="136.21052631578948" stroke="#e4e4e7"/><line x1="8" x2="312" y1="62.526315789473685" y2="62.526315789473685" stroke="#e4e4e7" stroke-dasharray="2 3"/><path d="M8.0 136.2 L9.8 135.3 L11.7 132.7 L15.8 122.5 L29.6 68.9 L35.1 51.3 L40.4 40.3 L43.1 37.2 L45.9 35.7 L47.9 35.5 L50.0 36.2 L54.4 39.8 L69.3 60.7 L75.0 67.2 L79.9 70.8 L82.4 71.8 L85.1 72.4 L89.1 72.2 L93.7 70.9 L108.4 63.3 L114.3 60.8 L119.3 59.5 L124.2 58.9 L127.9 58.9 L131.8 59.3 L151.7 62.9 L157.5 63.6 L163.2 63.8 L171.0 63.7 L190.8 62.4 L202.0 62.0 L240.4 62.7 L312.0 62.5" fill="none" stroke="#15803d" stroke-width="1.5" stroke-linejoin="round"/><circle cx="8.0" cy="136.2" r="2.2" fill="#fff" stroke="#15803d" stroke-width="1.2"/><circle cx="9.8" cy="135.3" r="2.2" fill="#fff" stroke="#15803d" stroke-width="1.2"/><circle cx="11.7" cy="132.7" r="2.2" fill="#fff" stroke="#15803d" stroke-width="1.2"/><circle cx="15.8" cy="122.5" r="2.2" fill="#fff" stroke="#15803d" stroke-width="1.2"/><circle cx="29.6" cy="68.9" r="2.2" fill="#fff" stroke="#15803d" stroke-width="1.2"/><circle cx="35.1" cy="51.3" r="2.2" fill="#fff" stroke="#15803d" stroke-width="1.2"/><circle cx="40.4" cy="40.3" r="2.2" fill="#fff" stroke="#15803d" stroke-width="1.2"/><circle cx="43.1" cy="37.2" r="2.2" fill="#fff" stroke="#15803d" stroke-width="1.2"/><circle cx="45.9" cy="35.7" r="2.2" fill="#fff" stroke="#15803d" stroke-width="1.2"/><circle cx="47.9" cy="35.5" r="2.2" fill="#fff" stroke="#15803d" stroke-width="1.2"/><circle cx="50.0" cy="36.2" r="2.2" fill="#fff" stroke="#15803d" stroke-width="1.2"/><circle cx="54.4" cy="39.8" r="2.2" fill="#fff" stroke="#15803d" stroke-width="1.2"/><circle cx="69.3" cy="60.7" r="2.2" fill="#fff" stroke="#15803d" stroke-width="1.2"/><circle cx="75.0" cy="67.2" r="2.2" fill="#fff" stroke="#15803d" stroke-width="1.2"/><circle cx="79.9" cy="70.8" r="2.2" fill="#fff" stroke="#15803d" stroke-width="1.2"/><circle cx="82.4" cy="71.8" r="2.2" fill="#fff" stroke="#15803d" stroke-width="1.2"/><circle cx="85.1" cy="72.4" r="2.2" fill="#fff" stroke="#15803d" stroke-width="1.2"/><circle cx="89.1" cy="72.2" r="2.2" fill="#fff" stroke="#15803d" stroke-width="1.2"/><circle cx="93.7" cy="70.9" r="2.2" fill="#fff" stroke="#15803d" stroke-width="1.2"/><circle cx="108.4" cy="63.3" r="2.2" fill="#fff" stroke="#15803d" stroke-width="1.2"/><circle cx="114.3" cy="60.8" r="2.2" fill="#fff" stroke="#15803d" stroke-width="1.2"/><circle cx="119.3" cy="59.5" r="2.2" fill="#fff" stroke="#15803d" stroke-width="1.2"/><circle cx="124.2" cy="58.9" r="2.2" fill="#fff" stroke="#15803d" stroke-width="1.2"/><circle cx="127.9" cy="58.9" r="2.2" fill="#fff" stroke="#15803d" stroke-width="1.2"/><circle cx="131.8" cy="59.3" r="2.2" fill="#fff" stroke="#15803d" stroke-width="1.2"/><circle cx="151.7" cy="62.9" r="2.2" fill="#fff" stroke="#15803d" stroke-width="1.2"/><circle cx="157.5" cy="63.6" r="2.2" fill="#fff" stroke="#15803d" stroke-width="1.2"/><circle cx="163.2" cy="63.8" r="2.2" fill="#fff" stroke="#15803d" stroke-width="1.2"/><circle cx="171.0" cy="63.7" r="2.2" fill="#fff" stroke="#15803d" stroke-width="1.2"/><circle cx="190.8" cy="62.4" r="2.2" fill="#fff" stroke="#15803d" stroke-width="1.2"/><circle cx="202.0" cy="62.0" r="2.2" fill="#fff" stroke="#15803d" stroke-width="1.2"/><circle cx="240.4" cy="62.7" r="2.2" fill="#fff" stroke="#15803d" stroke-width="1.2"/><circle cx="312.0" cy="62.5" r="2.2" fill="#fff" stroke="#15803d" stroke-width="1.2"/><text x="328" y="13" font-family="ui-monospace, SFMono-Regular, Menlo, monospace" font-size="11" fill="#18181b" font-weight="500">points: 12</text><text x="632" y="13" font-family="ui-monospace, SFMono-Regular, Menlo, monospace" font-size="11" fill="#a1a1aa" text-anchor="end">10 stops · 119 bytes</text><line x1="328" x2="632" y1="136.21052631578948" y2="136.21052631578948" stroke="#e4e4e7"/><line x1="328" x2="632" y1="62.526315789473685" y2="62.526315789473685" stroke="#e4e4e7" stroke-dasharray="2 3"/><path d="M328.0 136.2 L329.8 135.3 L331.7 132.7 L335.8 122.5 L349.6 68.9 L355.1 51.3 L360.4 40.3 L363.1 37.2 L365.9 35.7 L367.9 35.5 L370.0 36.2 L374.4 39.8 L389.3 60.7 L395.0 67.2 L399.9 70.8 L402.4 71.8 L405.1 72.4 L409.1 72.2 L413.7 70.9 L428.4 63.3 L434.3 60.8 L439.3 59.5 L444.2 58.9 L447.9 58.9 L451.8 59.3 L471.7 62.9 L477.5 63.6 L483.2 63.8 L491.0 63.7 L510.8 62.4 L522.0 62.0 L560.4 62.7 L632.0 62.5" fill="none" stroke="#e4e4e7" stroke-width="1.5" stroke-linejoin="round"/><path d="M328.0 136.2 L355.1 51.3 L365.9 35.7 L374.4 39.8 L395.0 67.2 L405.1 72.4 L444.2 58.9 L483.2 63.8 L522.0 62.0 L632.0 62.5" fill="none" stroke="#b45309" stroke-width="1.5" stroke-linejoin="round"/><circle cx="328.0" cy="136.2" r="2.2" fill="#fff" stroke="#b45309" stroke-width="1.2"/><circle cx="355.1" cy="51.3" r="2.2" fill="#fff" stroke="#b45309" stroke-width="1.2"/><circle cx="365.9" cy="35.7" r="2.2" fill="#fff" stroke="#b45309" stroke-width="1.2"/><circle cx="374.4" cy="39.8" r="2.2" fill="#fff" stroke="#b45309" stroke-width="1.2"/><circle cx="395.0" cy="67.2" r="2.2" fill="#fff" stroke="#b45309" stroke-width="1.2"/><circle cx="405.1" cy="72.4" r="2.2" fill="#fff" stroke="#b45309" stroke-width="1.2"/><circle cx="444.2" cy="58.9" r="2.2" fill="#fff" stroke="#b45309" stroke-width="1.2"/><circle cx="483.2" cy="63.8" r="2.2" fill="#fff" stroke="#b45309" stroke-width="1.2"/><circle cx="522.0" cy="62.0" r="2.2" fill="#fff" stroke="#b45309" stroke-width="1.2"/><circle cx="632.0" cy="62.5" r="2.2" fill="#fff" stroke="#b45309" stroke-width="1.2"/></svg>
